ffmpeg started on 2025-07-20 at 12:04:42
Report written to "D:\Convert\FFMetrics\reports\psnr_report-6.txt"
Log level: 32
Command line:
ffmpeg -hide_banner -nostdin -i "G:\\\xc0\xed\xe8\xec\xe5\\\xce\xed\xe3\xee\xe8\xed\xe3\xe8\\!_10_\xc2\xe5\xf1\xed\xe0_2018\\\xcf\xee\xf2\xe5\xf0\xff\xed\xed\xe0\xff \xef\xe5\xf1\xed\xff\\[SHIZA Project] Lost Song ONA [05] [MVO]_HEVC.mkv" -i "G:\\\xc0\xed\xe8\xec\xe5\\\xce\xed\xe3\xee\xe8\xed\xe3\xe8\\!_10_\xc2\xe5\xf1\xed\xe0_2018\\\xcf\xee\xf2\xe5\xf0\xff\xed\xed\xe0\xff \xef\xe5\xf1\xed\xff\\[SHIZA Project] Lost Song ONA [05] [MVO].mkv" -lavfi "[0:v]settb=AVTB,setpts=PTS-STARTPTS,format=pix_fmts=yuv420p10,fps=24000/1001,scale=1280:720:flags=bicubic[main];[1:v]settb=AVTB,setpts=PTS-STARTPTS,format=pix_fmts=yuv420p,fps=24000/1001,scale=1280:720:flags=bicubic[ref];[main][ref]psnr=eof_action=endall:stats_file='D\\:/Convert/FFMetrics/logs/psnr_logfile-6.txt'" -f null -
Input #0, matroska,webm, from 'G:\Аниме\Онгоинги\!_10_Весна_2018\Потерянная песня\[SHIZA Project] Lost Song ONA [05] [MVO]_HEVC.mkv':
  Metadata:
    ENCODER         : Lavf61.7.100
  Duration: 00:23:57.18, start: -0.021000, bitrate: 523 kb/s
  Stream #0:0(rus): Video: hevc (Main 10), yuv420p10le(tv, bt709, progressive), 1280x720 [SAR 1:1 DAR 16:9], 23.98 fps, 23.98 tbr, 1k tbn
      Metadata:
        title           : www.SHIZA-Project.com
        ENCODER         : Lavc61.19.100 libx265
        BPS             : 327817
        DURATION        : 00:23:57.143708333
        NUMBER_OF_FRAMES: 34457
        NUMBER_OF_BYTES : 58890106
        _STATISTICS_WRITING_APP: mkvpropedit v66.0.0 ('Josie') 64-bit
        _STATISTICS_WRITING_DATE_UTC: 2025-07-19 12:46:24
        _STATISTICS_TAGS: BPS DURATION NUMBER_OF_FRAMES NUMBER_OF_BYTES
  Stream #0:1(rus): Audio: aac (LC), 48000 Hz, stereo, fltp (default)
      Metadata:
        title           : MVO SHIZA Project
        ENCODER         : Lavc61.19.100 aac
        BPS             : 192171
        DURATION        : 00:23:57.162000000
        NUMBER_OF_FRAMES: 67368
        NUMBER_OF_BYTES : 34522667
        _STATISTICS_WRITING_APP: mkvpropedit v66.0.0 ('Josie') 64-bit
        _STATISTICS_WRITING_DATE_UTC: 2025-07-19 12:46:24
        _STATISTICS_TAGS: BPS DURATION NUMBER_OF_FRAMES NUMBER_OF_BYTES
  Stream #0:2(rus): Subtitle: ass (ssa) (default)
      Metadata:
        title           : Song
        BPS             : 8
        DURATION        : 00:11:44.700000000
        NUMBER_OF_FRAMES: 9
        NUMBER_OF_BYTES : 789
        _STATISTICS_WRITING_APP: mkvpropedit v66.0.0 ('Josie') 64-bit
        _STATISTICS_WRITING_DATE_UTC: 2025-07-19 12:46:24
        _STATISTICS_TAGS: BPS DURATION NUMBER_OF_FRAMES NUMBER_OF_BYTES
Input #1, matroska,webm, from 'G:\Аниме\Онгоинги\!_10_Весна_2018\Потерянная песня\[SHIZA Project] Lost Song ONA [05] [MVO].mkv':
  Metadata:
    encoder         : libebml v1.3.0 + libmatroska v1.4.0
    creation_time   : 2018-06-24T21:12:45.000000Z
  Duration: 00:23:57.16, start: 0.000000, bitrate: 1658 kb/s
  Stream #1:0(rus): Video: h264 (Main), yuv420p(progressive), 1280x720 [SAR 1:1 DAR 16:9], 23.98 fps, 23.98 tbr, 1k tbn
      Metadata:
        title           : www.SHIZA-Project.com
        BPS             : 1463797
        BPS-eng         : 1463797
        DURATION        : 00:23:57.144000000
        DURATION-eng    : 00:23:57.144000000
        NUMBER_OF_FRAMES: 34457
        NUMBER_OF_FRAMES-eng: 34457
        NUMBER_OF_BYTES : 262960947
        NUMBER_OF_BYTES-eng: 262960947
        _STATISTICS_WRITING_APP: mkvmerge v7.8.0 ('River Man') 32bit built on Mar 27 2015 16:18:02
        _STATISTICS_WRITING_APP-eng: mkvmerge v7.8.0 ('River Man') 32bit built on Mar 27 2015 16:18:02
        _STATISTICS_WRITING_DATE_UTC: 2018-06-24 19:56:28
        _STATISTICS_WRITING_DATE_UTC-eng: 2018-06-24 19:56:28
        _STATISTICS_TAGS: BPS DURATION NUMBER_OF_FRAMES NUMBER_OF_BYTES
        _STATISTICS_TAGS-eng: BPS DURATION NUMBER_OF_FRAMES NUMBER_OF_BYTES
  Stream #1:1(rus): Audio: aac (LC), 48000 Hz, stereo, fltp (default)
      Metadata:
        title           : MVO SHIZA Project
        BPS             : 191999
        BPS-eng         : 191999
        DURATION        : 00:23:57.162000000
        DURATION-eng    : 00:23:57.162000000
        NUMBER_OF_FRAMES: 67367
        NUMBER_OF_FRAMES-eng: 67367
        NUMBER_OF_BYTES : 34491786
        NUMBER_OF_BYTES-eng: 34491786
        _STATISTICS_WRITING_APP: mkvmerge v7.8.0 ('River Man') 32bit built on Mar 27 2015 16:18:02
        _STATISTICS_WRITING_APP-eng: mkvmerge v7.8.0 ('River Man') 32bit built on Mar 27 2015 16:18:02
        _STATISTICS_WRITING_DATE_UTC: 2018-06-24 19:56:28
        _STATISTICS_WRITING_DATE_UTC-eng: 2018-06-24 19:56:28
        _STATISTICS_TAGS: BPS DURATION NUMBER_OF_FRAMES NUMBER_OF_BYTES
        _STATISTICS_TAGS-eng: BPS DURATION NUMBER_OF_FRAMES NUMBER_OF_BYTES
  Stream #1:2(rus): Subtitle: ass (ssa) (default)
      Metadata:
        title           : Song
        BPS             : 8
        BPS-eng         : 8
        DURATION        : 00:11:44.700000000
        DURATION-eng    : 00:11:44.700000000
        NUMBER_OF_FRAMES: 9
        NUMBER_OF_FRAMES-eng: 9
        NUMBER_OF_BYTES : 789
        NUMBER_OF_BYTES-eng: 789
        _STATISTICS_WRITING_APP: mkvmerge v7.8.0 ('River Man') 32bit built on Mar 27 2015 16:18:02
        _STATISTICS_WRITING_APP-eng: mkvmerge v7.8.0 ('River Man') 32bit built on Mar 27 2015 16:18:02
        _STATISTICS_WRITING_DATE_UTC: 2018-06-24 19:56:28
        _STATISTICS_WRITING_DATE_UTC-eng: 2018-06-24 19:56:28
        _STATISTICS_TAGS: BPS DURATION NUMBER_OF_FRAMES NUMBER_OF_BYTES
        _STATISTICS_TAGS-eng: BPS DURATION NUMBER_OF_FRAMES NUMBER_OF_BYTES
Stream mapping:
  Stream #0:0 (hevc) -> settb:default
  Stream #1:0 (h264) -> settb:default
  psnr:default -> Stream #0:0 (wrapped_avframe)
  Stream #0:1 -> #0:1 (aac (native) -> pcm_s16le (native))
[swscaler @ 00000224dbd4f940] No accelerated colorspace conversion found from yuv420p to bgr48le.
[swscaler @ 00000224dbe2d0c0] No accelerated colorspace conversion found from yuv420p to bgr48le.
[swscaler @ 00000224dbf8bbc0] No accelerated colorspace conversion found from yuv420p to bgr48le.
[swscaler @ 00000224dc074cc0] No accelerated colorspace conversion found from yuv420p to bgr48le.
[swscaler @ 00000224dc0df780] No accelerated colorspace conversion found from yuv420p to bgr48le.
[swscaler @ 00000224dc181040] No accelerated colorspace conversion found from yuv420p to bgr48le.
[swscaler @ 00000224dc1df740] No accelerated colorspace conversion found from yuv420p to bgr48le.
[swscaler @ 00000224dc24fbc0] No accelerated colorspace conversion found from yuv420p to bgr48le.
[swscaler @ 00000224dc2ac040] No accelerated colorspace conversion found from yuv420p to bgr48le.
[swscaler @ 00000224dc2fff80] No accelerated colorspace conversion found from yuv420p to bgr48le.
[swscaler @ 00000224dc369040] No accelerated colorspace conversion found from yuv420p to bgr48le.
[swscaler @ 00000224dc3d4040] No accelerated colorspace conversion found from yuv420p to bgr48le.
[swscaler @ 00000224dc431040] No accelerated colorspace conversion found from yuv420p to bgr48le.
[swscaler @ 00000224dc4c0040] No accelerated colorspace conversion found from yuv420p to bgr48le.
[swscaler @ 00000224dc52d040] No accelerated colorspace conversion found from yuv420p to bgr48le.
[swscaler @ 00000224dc59e040] No accelerated colorspace conversion found from yuv420p to bgr48le.
Output #0, null, to 'pipe:':
  Metadata:
    encoder         : Lavf61.7.100
  Stream #0:0: Video: wrapped_avframe, yuv420p10le(tv, bt709, progressive), 1280x720 [SAR 1:1 DAR 16:9], q=2-31, 200 kb/s, 23.98 fps, 23.98 tbn
      Metadata:
        encoder         : Lavc61.19.100 wrapped_avframe
  Stream #0:1(rus): Audio: pcm_s16le, 48000 Hz, stereo, s16, 1536 kb/s (default)
      Metadata:
        title           : MVO SHIZA Project
        _STATISTICS_TAGS: BPS DURATION NUMBER_OF_FRAMES NUMBER_OF_BYTES
        BPS             : 192171
        DURATION        : 00:23:57.162000000
        NUMBER_OF_FRAMES: 67368
        NUMBER_OF_BYTES : 34522667
        _STATISTICS_WRITING_APP: mkvpropedit v66.0.0 ('Josie') 64-bit
        _STATISTICS_WRITING_DATE_UTC: 2025-07-19 12:46:24
        encoder         : Lavc61.19.100 pcm_s16le
frame=   76 fps=0.0 q=-0.0 size=N/A time=00:00:03.16 bitrate=N/A speed=6.15x    frame=  179 fps=172 q=-0.0 size=N/A time=00:00:07.46 bitrate=N/A speed=7.19x    frame=  275 fps=178 q=-0.0 size=N/A time=00:00:11.46 bitrate=N/A speed=7.42x    frame=  368 fps=178 q=-0.0 size=N/A time=00:00:15.34 bitrate=N/A speed=7.41x    frame=  458 fps=178 q=-0.0 size=N/A time=00:00:19.10 bitrate=N/A speed=7.41x    frame=  556 fps=179 q=-0.0 size=N/A time=00:00:23.18 bitrate=N/A speed=7.48x    frame=  650 fps=180 q=-0.0 size=N/A time=00:00:27.11 bitrate=N/A speed=7.51x    frame=  749 fps=181 q=-0.0 size=N/A time=00:00:31.23 bitrate=N/A speed=7.56x    frame=  835 fps=180 q=-0.0 size=N/A time=00:00:34.82 bitrate=N/A speed=7.51x    frame=  939 fps=182 q=-0.0 size=N/A time=00:00:39.16 bitrate=N/A speed=7.58x    frame= 1037 fps=183 q=-0.0 size=N/A time=00:00:43.25 bitrate=N/A speed=7.63x    frame= 1131 fps=183 q=-0.0 size=N/A time=00:00:47.17 bitrate=N/A speed=7.62x    frame= 1234 fps=184 q=-0.0 size=N/A time=00:00:51.46 bitrate=N/A speed=7.68x    frame= 1327 fps=184 q=-0.0 size=N/A time=00:00:55.34 bitrate=N/A speed=7.66x    frame= 1430 fps=185 q=-0.0 size=N/A time=00:00:59.64 bitrate=N/A speed= 7.7x    frame= 1519 fps=184 q=-0.0 size=N/A time=00:01:03.35 bitrate=N/A speed=7.68x    frame= 1620 fps=185 q=-0.0 size=N/A time=00:01:07.56 bitrate=N/A speed= 7.7x    frame= 1712 fps=184 q=-0.0 size=N/A time=00:01:11.40 bitrate=N/A speed=7.69x    frame= 1816 fps=185 q=-0.0 size=N/A time=00:01:15.74 bitrate=N/A speed=7.73x    frame= 1912 fps=185 q=-0.0 size=N/A time=00:01:19.74 bitrate=N/A speed=7.73x    frame= 2016 fps=186 q=-0.0 size=N/A time=00:01:24.08 bitrate=N/A speed=7.76x    frame= 2113 fps=186 q=-0.0 size=N/A time=00:01:28.12 bitrate=N/A speed=7.77x    frame= 2207 fps=186 q=-0.0 size=N/A time=00:01:32.05 bitrate=N/A speed=7.76x    frame= 2303 fps=186 q=-0.0 size=N/A time=00:01:36.05 bitrate=N/A speed=7.76x    frame= 2398 fps=186 q=-0.0 size=N/A time=00:01:40.01 bitrate=N/A speed=7.76x    frame= 2508 fps=187 q=-0.0 size=N/A time=00:01:44.60 bitrate=N/A speed= 7.8x    frame= 2605 fps=187 q=-0.0 size=N/A time=00:01:48.65 bitrate=N/A speed=7.81x    frame= 2706 fps=187 q=-0.0 size=N/A time=00:01:52.86 bitrate=N/A speed=7.81x    frame= 2795 fps=187 q=-0.0 size=N/A time=00:01:56.57 bitrate=N/A speed= 7.8x    frame= 2894 fps=187 q=-0.0 size=N/A time=00:02:00.70 bitrate=N/A speed= 7.8x    frame= 2994 fps=187 q=-0.0 size=N/A time=00:02:04.87 bitrate=N/A speed=7.81x    frame= 3090 fps=187 q=-0.0 size=N/A time=00:02:08.87 bitrate=N/A speed= 7.8x    frame= 3187 fps=187 q=-0.0 size=N/A time=00:02:12.92 bitrate=N/A speed= 7.8x    frame= 3281 fps=187 q=-0.0 size=N/A time=00:02:16.84 bitrate=N/A speed= 7.8x    frame= 3377 fps=187 q=-0.0 size=N/A time=00:02:20.84 bitrate=N/A speed= 7.8x    frame= 3473 fps=187 q=-0.0 size=N/A time=00:02:24.85 bitrate=N/A speed=7.79x    frame= 3568 fps=187 q=-0.0 size=N/A time=00:02:28.81 bitrate=N/A speed=7.79x    frame= 3664 fps=187 q=-0.0 size=N/A time=00:02:32.81 bitrate=N/A speed=7.79x    frame= 3764 fps=187 q=-0.0 size=N/A time=00:02:36.99 bitrate=N/A speed= 7.8x    frame= 3860 fps=187 q=-0.0 size=N/A time=00:02:40.99 bitrate=N/A speed= 7.8x    frame= 3954 fps=187 q=-0.0 size=N/A time=00:02:44.91 bitrate=N/A speed= 7.8x    frame= 4058 fps=187 q=-0.0 size=N/A time=00:02:49.25 bitrate=N/A speed=7.81x    frame= 4146 fps=187 q=-0.0 size=N/A time=00:02:52.92 bitrate=N/A speed=7.79x    frame= 4253 fps=187 q=-0.0 size=N/A time=00:02:57.38 bitrate=N/A speed=7.81x    frame= 4353 fps=187 q=-0.0 size=N/A time=00:03:01.55 bitrate=N/A speed=7.82x    frame= 4453 fps=188 q=-0.0 size=N/A time=00:03:05.72 bitrate=N/A speed=7.82x    frame= 4553 fps=188 q=-0.0 size=N/A time=00:03:09.89 bitrate=N/A speed=7.83x    frame= 4648 fps=188 q=-0.0 size=N/A time=00:03:13.86 bitrate=N/A speed=7.83x    frame= 4742 fps=188 q=-0.0 size=N/A time=00:03:17.78 bitrate=N/A speed=7.82x    frame= 4836 fps=187 q=-0.0 size=N/A time=00:03:21.70 bitrate=N/A speed=7.82x    frame= 4931 fps=187 q=-0.0 size=N/A time=00:03:25.66 bitrate=N/A speed=7.81x    frame= 5022 fps=187 q=-0.0 size=N/A time=00:03:29.45 bitrate=N/A speed=7.81x    frame= 5117 fps=187 q=-0.0 size=N/A time=00:03:33.42 bitrate=N/A speed= 7.8x    frame= 5217 fps=187 q=-0.0 size=N/A time=00:03:37.59 bitrate=N/A speed=7.81x    frame= 5308 fps=187 q=-0.0 size=N/A time=00:03:41.38 bitrate=N/A speed= 7.8x    frame= 5408 fps=187 q=-0.0 size=N/A time=00:03:45.55 bitrate=N/A speed=7.81x    frame= 5511 fps=187 q=-0.0 size=N/A time=00:03:49.85 bitrate=N/A speed=7.82x    frame= 5609 fps=187 q=-0.0 size=N/A time=00:03:53.94 bitrate=N/A speed=7.82x    frame= 5702 fps=187 q=-0.0 size=N/A time=00:03:57.82 bitrate=N/A speed=7.81x    frame= 5800 fps=187 q=-0.0 size=N/A time=00:04:01.90 bitrate=N/A speed=7.81x    frame= 5899 fps=187 q=-0.0 size=N/A time=00:04:06.03 bitrate=N/A speed=7.82x    frame= 5998 fps=188 q=-0.0 size=N/A time=00:04:10.16 bitrate=N/A speed=7.82x    frame= 6096 fps=188 q=-0.0 size=N/A time=00:04:14.25 bitrate=N/A speed=7.82x    frame= 6200 fps=188 q=-0.0 size=N/A time=00:04:18.59 bitrate=N/A speed=7.83x    frame= 6298 fps=188 q=-0.0 size=N/A time=00:04:22.67 bitrate=N/A speed=7.83x    frame= 6397 fps=188 q=-0.0 size=N/A time=00:04:26.80 bitrate=N/A speed=7.84x    frame= 6489 fps=188 q=-0.0 size=N/A time=00:04:30.64 bitrate=N/A speed=7.83x    frame= 6588 fps=188 q=-0.0 size=N/A time=00:04:34.77 bitrate=N/A speed=7.83x    frame= 6684 fps=188 q=-0.0 size=N/A time=00:04:38.77 bitrate=N/A speed=7.83x    frame= 6775 fps=188 q=-0.0 size=N/A time=00:04:42.57 bitrate=N/A speed=7.83x    frame= 6870 fps=188 q=-0.0 size=N/A time=00:04:46.53 bitrate=N/A speed=7.82x    frame= 6968 fps=188 q=-0.0 size=N/A time=00:04:50.62 bitrate=N/A speed=7.82x    frame= 7059 fps=187 q=-0.0 size=N/A time=00:04:54.41 bitrate=N/A speed=7.82x    frame= 7165 fps=188 q=-0.0 size=N/A time=00:04:58.84 bitrate=N/A speed=7.83x    frame= 7259 fps=188 q=-0.0 size=N/A time=00:05:02.76 bitrate=N/A speed=7.83x    frame= 7359 fps=188 q=-0.0 size=N/A time=00:05:06.93 bitrate=N/A speed=7.83x    frame= 7457 fps=188 q=-0.0 size=N/A time=00:05:11.01 bitrate=N/A speed=7.83x    frame= 7559 fps=188 q=-0.0 size=N/A time=00:05:15.27 bitrate=N/A speed=7.83x    frame= 7653 fps=188 q=-0.0 size=N/A time=00:05:19.19 bitrate=N/A speed=7.83x    frame= 7748 fps=188 q=-0.0 size=N/A time=00:05:23.15 bitrate=N/A speed=7.83x    frame= 7846 fps=188 q=-0.0 size=N/A time=00:05:27.24 bitrate=N/A speed=7.83x    frame= 7944 fps=188 q=-0.0 size=N/A time=00:05:31.33 bitrate=N/A speed=7.83x    frame= 8043 fps=188 q=-0.0 size=N/A time=00:05:35.46 bitrate=N/A speed=7.83x    frame= 8140 fps=188 q=-0.0 size=N/A time=00:05:39.50 bitrate=N/A speed=7.83x    frame= 8232 fps=188 q=-0.0 size=N/A time=00:05:43.34 bitrate=N/A speed=7.83x    frame= 8324 fps=188 q=-0.0 size=N/A time=00:05:47.18 bitrate=N/A speed=7.82x    frame= 8420 fps=188 q=-0.0 size=N/A time=00:05:51.18 bitrate=N/A speed=7.82x    frame= 8517 fps=188 q=-0.0 size=N/A time=00:05:55.22 bitrate=N/A speed=7.82x    frame= 8609 fps=187 q=-0.0 size=N/A time=00:05:59.06 bitrate=N/A speed=7.82x    frame= 8704 fps=187 q=-0.0 size=N/A time=00:06:03.02 bitrate=N/A speed=7.82x    frame= 8802 fps=187 q=-0.0 size=N/A time=00:06:07.11 bitrate=N/A speed=7.82x    frame= 8901 fps=187 q=-0.0 size=N/A time=00:06:11.24 bitrate=N/A speed=7.82x    frame= 8996 fps=187 q=-0.0 size=N/A time=00:06:15.20 bitrate=N/A speed=7.82x    frame= 9099 fps=188 q=-0.0 size=N/A time=00:06:19.50 bitrate=N/A speed=7.82x    frame= 9198 fps=188 q=-0.0 size=N/A time=00:06:23.63 bitrate=N/A speed=7.83x    frame= 9299 fps=188 q=-0.0 size=N/A time=00:06:27.84 bitrate=N/A speed=7.83x    frame= 9397 fps=188 q=-0.0 size=N/A time=00:06:31.93 bitrate=N/A speed=7.83x    frame= 9489 fps=188 q=-0.0 size=N/A time=00:06:35.77 bitrate=N/A speed=7.83x    frame= 9598 fps=188 q=-0.0 size=N/A time=00:06:40.31 bitrate=N/A speed=7.84x    frame= 9696 fps=188 q=-0.0 size=N/A time=00:06:44.40 bitrate=N/A speed=7.84x    frame= 9786 fps=188 q=-0.0 size=N/A time=00:06:48.15 bitrate=N/A speed=7.83x    frame= 9885 fps=188 q=-0.0 size=N/A time=00:06:52.28 bitrate=N/A speed=7.84x    frame= 9991 fps=188 q=-0.0 size=N/A time=00:06:56.70 bitrate=N/A speed=7.84x    frame=10087 fps=188 q=-0.0 size=N/A time=00:07:00.71 bitrate=N/A speed=7.84x    frame=10184 fps=188 q=-0.0 size=N/A time=00:07:04.75 bitrate=N/A speed=7.84x    frame=10280 fps=188 q=-0.0 size=N/A time=00:07:08.76 bitrate=N/A speed=7.84x    frame=10370 fps=188 q=-0.0 size=N/A time=00:07:12.51 bitrate=N/A speed=7.83x    frame=10474 fps=188 q=-0.0 size=N/A time=00:07:16.85 bitrate=N/A speed=7.84x    frame=10573 fps=188 q=-0.0 size=N/A time=00:07:20.98 bitrate=N/A speed=7.84x    frame=10673 fps=188 q=-0.0 size=N/A time=00:07:25.15 bitrate=N/A speed=7.84x    frame=10770 fps=188 q=-0.0 size=N/A time=00:07:29.19 bitrate=N/A speed=7.84x    frame=10872 fps=188 q=-0.0 size=N/A time=00:07:33.45 bitrate=N/A speed=7.85x    frame=10961 fps=188 q=-0.0 size=N/A time=00:07:37.16 bitrate=N/A speed=7.84x    frame=11073 fps=188 q=-0.0 size=N/A time=00:07:41.83 bitrate=N/A speed=7.85x    frame=11173 fps=188 q=-0.0 size=N/A time=00:07:46.00 bitrate=N/A speed=7.85x    frame=11266 fps=188 q=-0.0 size=N/A time=00:07:49.88 bitrate=N/A speed=7.85x    frame=11370 fps=188 q=-0.0 size=N/A time=00:07:54.22 bitrate=N/A speed=7.86x    frame=11473 fps=188 q=-0.0 size=N/A time=00:07:58.51 bitrate=N/A speed=7.86x    frame=11569 fps=188 q=-0.0 size=N/A time=00:08:02.52 bitrate=N/A speed=7.86x    frame=11668 fps=188 q=-0.0 size=N/A time=00:08:06.65 bitrate=N/A speed=7.86x    frame=11773 fps=189 q=-0.0 size=N/A time=00:08:11.03 bitrate=N/A speed=7.87x    frame=11862 fps=188 q=-0.0 size=N/A time=00:08:14.74 bitrate=N/A speed=7.86x    frame=11966 fps=189 q=-0.0 size=N/A time=00:08:19.12 bitrate=N/A speed=7.87x    frame=12064 fps=189 q=-0.0 size=N/A time=00:08:23.16 bitrate=N/A speed=7.87x    frame=12160 fps=189 q=-0.0 size=N/A time=00:08:27.17 bitrate=N/A speed=7.87x    frame=12259 fps=189 q=-0.0 size=N/A time=00:08:31.30 bitrate=N/A speed=7.87x    frame=12352 fps=189 q=-0.0 size=N/A time=00:08:35.18 bitrate=N/A speed=7.86x    frame=12454 fps=189 q=-0.0 size=N/A time=00:08:39.43 bitrate=N/A speed=7.87x    frame=12553 fps=189 q=-0.0 size=N/A time=00:08:43.56 bitrate=N/A speed=7.87x    frame=12654 fps=189 q=-0.0 size=N/A time=00:08:47.77 bitrate=N/A speed=7.87x    frame=12756 fps=189 q=-0.0 size=N/A time=00:08:52.03 bitrate=N/A speed=7.87x    frame=12850 fps=189 q=-0.0 size=N/A time=00:08:55.95 bitrate=N/A speed=7.87x    frame=12954 fps=189 q=-0.0 size=N/A time=00:09:00.28 bitrate=N/A speed=7.87x    frame=13054 fps=189 q=-0.0 size=N/A time=00:09:04.46 bitrate=N/A speed=7.88x    frame=13156 fps=189 q=-0.0 size=N/A time=00:09:08.71 bitrate=N/A speed=7.88x    frame=13254 fps=189 q=-0.0 size=N/A time=00:09:12.80 bitrate=N/A speed=7.88x    frame=13353 fps=189 q=-0.0 size=N/A time=00:09:16.93 bitrate=N/A speed=7.88x    frame=13458 fps=189 q=-0.0 size=N/A time=00:09:21.31 bitrate=N/A speed=7.89x    frame=13554 fps=189 q=-0.0 size=N/A time=00:09:25.31 bitrate=N/A speed=7.88x    frame=13641 fps=189 q=-0.0 size=N/A time=00:09:28.94 bitrate=N/A speed=7.88x    frame=13743 fps=189 q=-0.0 size=N/A time=00:09:33.19 bitrate=N/A speed=7.88x    frame=13840 fps=189 q=-0.0 size=N/A time=00:09:37.24 bitrate=N/A speed=7.88x    frame=13941 fps=189 q=-0.0 size=N/A time=00:09:41.45 bitrate=N/A speed=7.88x    frame=14043 fps=189 q=-0.0 size=N/A time=00:09:45.71 bitrate=N/A speed=7.88x    frame=14143 fps=189 q=-0.0 size=N/A time=00:09:49.88 bitrate=N/A speed=7.89x    frame=14239 fps=189 q=-0.0 size=N/A time=00:09:53.88 bitrate=N/A speed=7.89x    frame=14338 fps=189 q=-0.0 size=N/A time=00:09:58.01 bitrate=N/A speed=7.89x    frame=14437 fps=189 q=-0.0 size=N/A time=00:10:02.14 bitrate=N/A speed=7.89x    frame=14539 fps=189 q=-0.0 size=N/A time=00:10:06.39 bitrate=N/A speed=7.89x    frame=14637 fps=189 q=-0.0 size=N/A time=00:10:10.48 bitrate=N/A speed=7.89x    frame=14740 fps=189 q=-0.0 size=N/A time=00:10:14.78 bitrate=N/A speed=7.89x    frame=14835 fps=189 q=-0.0 size=N/A time=00:10:18.74 bitrate=N/A speed=7.89x    frame=14931 fps=189 q=-0.0 size=N/A time=00:10:22.74 bitrate=N/A speed=7.89x    frame=15026 fps=189 q=-0.0 size=N/A time=00:10:26.70 bitrate=N/A speed=7.89x    frame=15124 fps=189 q=-0.0 size=N/A time=00:10:30.79 bitrate=N/A speed=7.89x    frame=15220 fps=189 q=-0.0 size=N/A time=00:10:34.80 bitrate=N/A speed=7.89x    frame=15315 fps=189 q=-0.0 size=N/A time=00:10:38.76 bitrate=N/A speed=7.89x    frame=15410 fps=189 q=-0.0 size=N/A time=00:10:42.72 bitrate=N/A speed=7.89x    frame=15504 fps=189 q=-0.0 size=N/A time=00:10:46.64 bitrate=N/A speed=7.88x    frame=15603 fps=189 q=-0.0 size=N/A time=00:10:50.77 bitrate=N/A speed=7.89x    frame=15700 fps=189 q=-0.0 size=N/A time=00:10:54.82 bitrate=N/A speed=7.88x    frame=15789 fps=189 q=-0.0 size=N/A time=00:10:58.53 bitrate=N/A speed=7.88x    frame=15899 fps=189 q=-0.0 size=N/A time=00:11:03.12 bitrate=N/A speed=7.89x    frame=15987 fps=189 q=-0.0 size=N/A time=00:11:06.79 bitrate=N/A speed=7.88x    frame=16100 fps=189 q=-0.0 size=N/A time=00:11:11.50 bitrate=N/A speed=7.89x    frame=16198 fps=189 q=-0.0 size=N/A time=00:11:15.59 bitrate=N/A speed=7.89x    frame=16293 fps=189 q=-0.0 size=N/A time=00:11:19.55 bitrate=N/A speed=7.89x    frame=16401 fps=189 q=-0.0 size=N/A time=00:11:24.05 bitrate=N/A speed=7.89x    frame=16504 fps=189 q=-0.0 size=N/A time=00:11:28.35 bitrate=N/A speed= 7.9x    frame=16600 fps=189 q=-0.0 size=N/A time=00:11:32.35 bitrate=N/A speed= 7.9x    frame=16701 fps=189 q=-0.0 size=N/A time=00:11:36.57 bitrate=N/A speed= 7.9x    frame=16805 fps=189 q=-0.0 size=N/A time=00:11:40.90 bitrate=N/A speed= 7.9x    frame=16903 fps=189 q=-0.0 size=N/A time=00:11:44.99 bitrate=N/A speed= 7.9x    frame=17002 fps=189 q=-0.0 size=N/A time=00:11:49.12 bitrate=N/A speed= 7.9x    frame=17098 fps=189 q=-0.0 size=N/A time=00:11:53.12 bitrate=N/A speed= 7.9x    frame=17189 fps=189 q=-0.0 size=N/A time=00:11:56.92 bitrate=N/A speed= 7.9x    frame=17282 fps=189 q=-0.0 size=N/A time=00:12:00.80 bitrate=N/A speed= 7.9x    frame=17380 fps=189 q=-0.0 size=N/A time=00:12:04.89 bitrate=N/A speed= 7.9x    frame=17477 fps=189 q=-0.0 size=N/A time=00:12:08.93 bitrate=N/A speed= 7.9x    frame=17573 fps=189 q=-0.0 size=N/A time=00:12:12.94 bitrate=N/A speed=7.89x    frame=17673 fps=189 q=-0.0 size=N/A time=00:12:17.11 bitrate=N/A speed=7.89x    frame=17772 fps=189 q=-0.0 size=N/A time=00:12:21.24 bitrate=N/A speed= 7.9x    frame=17869 fps=189 q=-0.0 size=N/A time=00:12:25.28 bitrate=N/A speed= 7.9x    frame=17968 fps=189 q=-0.0 size=N/A time=00:12:29.41 bitrate=N/A speed= 7.9x    frame=18071 fps=189 q=-0.0 size=N/A time=00:12:33.71 bitrate=N/A speed= 7.9x    frame=18171 fps=189 q=-0.0 size=N/A time=00:12:37.88 bitrate=N/A speed= 7.9x    frame=18272 fps=189 q=-0.0 size=N/A time=00:12:42.09 bitrate=N/A speed= 7.9x    frame=18371 fps=189 q=-0.0 size=N/A time=00:12:46.22 bitrate=N/A speed= 7.9x    frame=18471 fps=189 q=-0.0 size=N/A time=00:12:50.39 bitrate=N/A speed= 7.9x    frame=18569 fps=189 q=-0.0 size=N/A time=00:12:54.48 bitrate=N/A speed= 7.9x    frame=18662 fps=189 q=-0.0 size=N/A time=00:12:58.36 bitrate=N/A speed= 7.9x    frame=18768 fps=190 q=-0.0 size=N/A time=00:13:02.78 bitrate=N/A speed= 7.9x    frame=18861 fps=189 q=-0.0 size=N/A time=00:13:06.66 bitrate=N/A speed= 7.9x    frame=18965 fps=190 q=-0.0 size=N/A time=00:13:10.99 bitrate=N/A speed=7.91x    frame=19055 fps=189 q=-0.0 size=N/A time=00:13:14.75 bitrate=N/A speed= 7.9x    frame=19155 fps=189 q=-0.0 size=N/A time=00:13:18.92 bitrate=N/A speed= 7.9x    frame=19253 fps=189 q=-0.0 size=N/A time=00:13:23.01 bitrate=N/A speed= 7.9x    frame=19347 fps=189 q=-0.0 size=N/A time=00:13:26.93 bitrate=N/A speed= 7.9x    frame=19445 fps=189 q=-0.0 size=N/A time=00:13:31.01 bitrate=N/A speed= 7.9x    frame=19533 fps=189 q=-0.0 size=N/A time=00:13:34.68 bitrate=N/A speed= 7.9x    frame=19645 fps=189 q=-0.0 size=N/A time=00:13:39.36 bitrate=N/A speed= 7.9x    frame=19742 fps=189 q=-0.0 size=N/A time=00:13:43.40 bitrate=N/A speed= 7.9x    frame=19844 fps=190 q=-0.0 size=N/A time=00:13:47.66 bitrate=N/A speed= 7.9x    frame=19942 fps=190 q=-0.0 size=N/A time=00:13:51.74 bitrate=N/A speed=7.91x    frame=20043 fps=190 q=-0.0 size=N/A time=00:13:55.96 bitrate=N/A speed=7.91x    frame=20142 fps=190 q=-0.0 size=N/A time=00:14:00.08 bitrate=N/A speed=7.91x    frame=20238 fps=190 q=-0.0 size=N/A time=00:14:04.09 bitrate=N/A speed=7.91x    frame=20341 fps=190 q=-0.0 size=N/A time=00:14:08.38 bitrate=N/A speed=7.91x    frame=20439 fps=190 q=-0.0 size=N/A time=00:14:12.47 bitrate=N/A speed=7.91x    frame=20541 fps=190 q=-0.0 size=N/A time=00:14:16.73 bitrate=N/A speed=7.91x    frame=20632 fps=190 q=-0.0 size=N/A time=00:14:20.52 bitrate=N/A speed=7.91x    frame=20743 fps=190 q=-0.0 size=N/A time=00:14:25.15 bitrate=N/A speed=7.91x    frame=20833 fps=190 q=-0.0 size=N/A time=00:14:28.90 bitrate=N/A speed=7.91x    frame=20934 fps=190 q=-0.0 size=N/A time=00:14:33.12 bitrate=N/A speed=7.91x    frame=21030 fps=190 q=-0.0 size=N/A time=00:14:37.12 bitrate=N/A speed=7.91x    frame=21122 fps=190 q=-0.0 size=N/A time=00:14:40.96 bitrate=N/A speed=7.91x    frame=21217 fps=190 q=-0.0 size=N/A time=00:14:44.92 bitrate=N/A speed=7.91x    frame=21318 fps=190 q=-0.0 size=N/A time=00:14:49.13 bitrate=N/A speed=7.91x    frame=21418 fps=190 q=-0.0 size=N/A time=00:14:53.30 bitrate=N/A speed=7.91x    frame=21517 fps=190 q=-0.0 size=N/A time=00:14:57.43 bitrate=N/A speed=7.91x    frame=21615 fps=190 q=-0.0 size=N/A time=00:15:01.52 bitrate=N/A speed=7.91x    frame=21714 fps=190 q=-0.0 size=N/A time=00:15:05.65 bitrate=N/A speed=7.91x    frame=21811 fps=190 q=-0.0 size=N/A time=00:15:09.70 bitrate=N/A speed=7.91x    frame=21911 fps=190 q=-0.0 size=N/A time=00:15:13.87 bitrate=N/A speed=7.91x    frame=22012 fps=190 q=-0.0 size=N/A time=00:15:18.08 bitrate=N/A speed=7.91x    frame=22110 fps=190 q=-0.0 size=N/A time=00:15:22.17 bitrate=N/A speed=7.91x    frame=22208 fps=190 q=-0.0 size=N/A time=00:15:26.25 bitrate=N/A speed=7.91x    frame=22306 fps=190 q=-0.0 size=N/A time=00:15:30.34 bitrate=N/A speed=7.91x    frame=22408 fps=190 q=-0.0 size=N/A time=00:15:34.60 bitrate=N/A speed=7.91x    frame=22501 fps=190 q=-0.0 size=N/A time=00:15:38.47 bitrate=N/A speed=7.91x    frame=22609 fps=190 q=-0.0 size=N/A time=00:15:42.98 bitrate=N/A speed=7.91x    frame=22703 fps=190 q=-0.0 size=N/A time=00:15:46.90 bitrate=N/A speed=7.91x    frame=22801 fps=190 q=-0.0 size=N/A time=00:15:50.99 bitrate=N/A speed=7.91x    frame=22894 fps=190 q=-0.0 size=N/A time=00:15:54.87 bitrate=N/A speed=7.91x    frame=22992 fps=190 q=-0.0 size=N/A time=00:15:58.95 bitrate=N/A speed=7.91x    frame=23085 fps=190 q=-0.0 size=N/A time=00:16:02.83 bitrate=N/A speed=7.91x    frame=23182 fps=190 q=-0.0 size=N/A time=00:16:06.88 bitrate=N/A speed=7.91x    frame=23281 fps=190 q=-0.0 size=N/A time=00:16:11.01 bitrate=N/A speed=7.91x    frame=23380 fps=190 q=-0.0 size=N/A time=00:16:15.14 bitrate=N/A speed=7.91x    frame=23479 fps=190 q=-0.0 size=N/A time=00:16:19.26 bitrate=N/A speed=7.91x    frame=23578 fps=190 q=-0.0 size=N/A time=00:16:23.39 bitrate=N/A speed=7.91x    frame=23674 fps=190 q=-0.0 size=N/A time=00:16:27.40 bitrate=N/A speed=7.91x    frame=23773 fps=190 q=-0.0 size=N/A time=00:16:31.53 bitrate=N/A speed=7.91x    frame=23873 fps=190 q=-0.0 size=N/A time=00:16:35.70 bitrate=N/A speed=7.91x    frame=23975 fps=190 q=-0.0 size=N/A time=00:16:39.95 bitrate=N/A speed=7.91x    frame=24072 fps=190 q=-0.0 size=N/A time=00:16:44.00 bitrate=N/A speed=7.91x    frame=24166 fps=190 q=-0.0 size=N/A time=00:16:47.92 bitrate=N/A speed=7.91x    frame=24255 fps=190 q=-0.0 size=N/A time=00:16:51.63 bitrate=N/A speed=7.91x    frame=24360 fps=190 q=-0.0 size=N/A time=00:16:56.01 bitrate=N/A speed=7.91x    frame=24441 fps=190 q=-0.0 size=N/A time=00:16:59.39 bitrate=N/A speed=7.91x    frame=24528 fps=189 q=-0.0 size=N/A time=00:17:03.02 bitrate=N/A speed= 7.9x    frame=24634 fps=190 q=-0.0 size=N/A time=00:17:07.44 bitrate=N/A speed= 7.9x    frame=24730 fps=190 q=-0.0 size=N/A time=00:17:11.44 bitrate=N/A speed= 7.9x    frame=24823 fps=189 q=-0.0 size=N/A time=00:17:15.32 bitrate=N/A speed= 7.9x    frame=24919 fps=189 q=-0.0 size=N/A time=00:17:19.32 bitrate=N/A speed= 7.9x    frame=25006 fps=189 q=-0.0 size=N/A time=00:17:22.95 bitrate=N/A speed= 7.9x    frame=25105 fps=189 q=-0.0 size=N/A time=00:17:27.08 bitrate=N/A speed= 7.9x    frame=25199 fps=189 q=-0.0 size=N/A time=00:17:31.00 bitrate=N/A speed= 7.9x    frame=25297 fps=189 q=-0.0 size=N/A time=00:17:35.09 bitrate=N/A speed= 7.9x    frame=25398 fps=189 q=-0.0 size=N/A time=00:17:39.30 bitrate=N/A speed= 7.9x    frame=25496 fps=189 q=-0.0 size=N/A time=00:17:43.39 bitrate=N/A speed= 7.9x    frame=25589 fps=189 q=-0.0 size=N/A time=00:17:47.27 bitrate=N/A speed= 7.9x    frame=25688 fps=189 q=-0.0 size=N/A time=00:17:51.40 bitrate=N/A speed= 7.9x    frame=25777 fps=189 q=-0.0 size=N/A time=00:17:55.11 bitrate=N/A speed= 7.9x    frame=25868 fps=189 q=-0.0 size=N/A time=00:17:58.91 bitrate=N/A speed=7.89x    frame=25967 fps=189 q=-0.0 size=N/A time=00:18:03.04 bitrate=N/A speed=7.89x    frame=26062 fps=189 q=-0.0 size=N/A time=00:18:07.00 bitrate=N/A speed=7.89x    frame=26162 fps=189 q=-0.0 size=N/A time=00:18:11.17 bitrate=N/A speed=7.89x    frame=26254 fps=189 q=-0.0 size=N/A time=00:18:15.01 bitrate=N/A speed=7.89x    frame=26356 fps=189 q=-0.0 size=N/A time=00:18:19.26 bitrate=N/A speed=7.89x    frame=26447 fps=189 q=-0.0 size=N/A time=00:18:23.06 bitrate=N/A speed=7.89x    frame=26550 fps=189 q=-0.0 size=N/A time=00:18:27.35 bitrate=N/A speed=7.89x    frame=26645 fps=189 q=-0.0 size=N/A time=00:18:31.31 bitrate=N/A speed=7.89x    frame=26741 fps=189 q=-0.0 size=N/A time=00:18:35.32 bitrate=N/A speed=7.89x    frame=26835 fps=189 q=-0.0 size=N/A time=00:18:39.24 bitrate=N/A speed=7.89x    frame=26923 fps=189 q=-0.0 size=N/A time=00:18:42.91 bitrate=N/A speed=7.89x    frame=27028 fps=189 q=-0.0 size=N/A time=00:18:47.29 bitrate=N/A speed=7.89x    frame=27119 fps=189 q=-0.0 size=N/A time=00:18:51.08 bitrate=N/A speed=7.89x    frame=27212 fps=189 q=-0.0 size=N/A time=00:18:54.96 bitrate=N/A speed=7.89x    frame=27302 fps=189 q=-0.0 size=N/A time=00:18:58.72 bitrate=N/A speed=7.89x    frame=27394 fps=189 q=-0.0 size=N/A time=00:19:02.55 bitrate=N/A speed=7.88x    frame=27486 fps=189 q=-0.0 size=N/A time=00:19:06.39 bitrate=N/A speed=7.88x    frame=27592 fps=189 q=-0.0 size=N/A time=00:19:10.81 bitrate=N/A speed=7.88x    frame=27688 fps=189 q=-0.0 size=N/A time=00:19:14.82 bitrate=N/A speed=7.88x    frame=27786 fps=189 q=-0.0 size=N/A time=00:19:18.90 bitrate=N/A speed=7.88x    frame=27873 fps=189 q=-0.0 size=N/A time=00:19:22.53 bitrate=N/A speed=7.88x    frame=27978 fps=189 q=-0.0 size=N/A time=00:19:26.91 bitrate=N/A speed=7.88x    frame=28075 fps=189 q=-0.0 size=N/A time=00:19:30.96 bitrate=N/A speed=7.88x    frame=28169 fps=189 q=-0.0 size=N/A time=00:19:34.88 bitrate=N/A speed=7.88x    frame=28265 fps=189 q=-0.0 size=N/A time=00:19:38.88 bitrate=N/A speed=7.88x    frame=28352 fps=189 q=-0.0 size=N/A time=00:19:42.51 bitrate=N/A speed=7.88x    frame=28448 fps=189 q=-0.0 size=N/A time=00:19:46.51 bitrate=N/A speed=7.88x    frame=28547 fps=189 q=-0.0 size=N/A time=00:19:50.64 bitrate=N/A speed=7.88x    frame=28645 fps=189 q=-0.0 size=N/A time=00:19:54.73 bitrate=N/A speed=7.88x    frame=28744 fps=189 q=-0.0 size=N/A time=00:19:58.86 bitrate=N/A speed=7.88x    frame=28837 fps=189 q=-0.0 size=N/A time=00:20:02.74 bitrate=N/A speed=7.88x    frame=28931 fps=189 q=-0.0 size=N/A time=00:20:06.66 bitrate=N/A speed=7.88x    frame=29034 fps=189 q=-0.0 size=N/A time=00:20:10.95 bitrate=N/A speed=7.88x    frame=29129 fps=189 q=-0.0 size=N/A time=00:20:14.92 bitrate=N/A speed=7.88x    frame=29229 fps=189 q=-0.0 size=N/A time=00:20:19.09 bitrate=N/A speed=7.88x    frame=29327 fps=189 q=-0.0 size=N/A time=00:20:23.18 bitrate=N/A speed=7.88x    frame=29412 fps=189 q=-0.0 size=N/A time=00:20:26.72 bitrate=N/A speed=7.87x    frame=29521 fps=189 q=-0.0 size=N/A time=00:20:31.27 bitrate=N/A speed=7.88x    frame=29619 fps=189 q=-0.0 size=N/A time=00:20:35.35 bitrate=N/A speed=7.88x    frame=29707 fps=189 q=-0.0 size=N/A time=00:20:39.02 bitrate=N/A speed=7.88x    frame=29812 fps=189 q=-0.0 size=N/A time=00:20:43.40 bitrate=N/A speed=7.88x    frame=29905 fps=189 q=-0.0 size=N/A time=00:20:47.28 bitrate=N/A speed=7.88x    frame=30003 fps=189 q=-0.0 size=N/A time=00:20:51.37 bitrate=N/A speed=7.88x    frame=30100 fps=189 q=-0.0 size=N/A time=00:20:55.42 bitrate=N/A speed=7.88x    frame=30198 fps=189 q=-0.0 size=N/A time=00:20:59.50 bitrate=N/A speed=7.88x    frame=30299 fps=189 q=-0.0 size=N/A time=00:21:03.72 bitrate=N/A speed=7.88x    frame=30394 fps=189 q=-0.0 size=N/A time=00:21:07.68 bitrate=N/A speed=7.88x    frame=30488 fps=189 q=-0.0 size=N/A time=00:21:11.60 bitrate=N/A speed=7.88x    frame=30582 fps=189 q=-0.0 size=N/A time=00:21:15.52 bitrate=N/A speed=7.88x    frame=30678 fps=189 q=-0.0 size=N/A time=00:21:19.52 bitrate=N/A speed=7.87x    frame=30774 fps=189 q=-0.0 size=N/A time=00:21:23.53 bitrate=N/A speed=7.87x    frame=30864 fps=189 q=-0.0 size=N/A time=00:21:27.28 bitrate=N/A speed=7.87x    frame=30970 fps=189 q=-0.0 size=N/A time=00:21:31.70 bitrate=N/A speed=7.87x    frame=31066 fps=189 q=-0.0 size=N/A time=00:21:35.71 bitrate=N/A speed=7.87x    frame=31165 fps=189 q=-0.0 size=N/A time=00:21:39.84 bitrate=N/A speed=7.87x    frame=31258 fps=189 q=-0.0 size=N/A time=00:21:43.71 bitrate=N/A speed=7.87x    frame=31357 fps=189 q=-0.0 size=N/A time=00:21:47.84 bitrate=N/A speed=7.87x    frame=31451 fps=189 q=-0.0 size=N/A time=00:21:51.76 bitrate=N/A speed=7.87x    frame=31548 fps=189 q=-0.0 size=N/A time=00:21:55.81 bitrate=N/A speed=7.87x    frame=31647 fps=189 q=-0.0 size=N/A time=00:21:59.94 bitrate=N/A speed=7.87x    frame=31742 fps=189 q=-0.0 size=N/A time=00:22:03.90 bitrate=N/A speed=7.87x    frame=31842 fps=189 q=-0.0 size=N/A time=00:22:08.07 bitrate=N/A speed=7.87x    frame=31939 fps=189 q=-0.0 size=N/A time=00:22:12.12 bitrate=N/A speed=7.87x    frame=32036 fps=189 q=-0.0 size=N/A time=00:22:16.16 bitrate=N/A speed=7.87x    frame=32132 fps=189 q=-0.0 size=N/A time=00:22:20.17 bitrate=N/A speed=7.87x    frame=32226 fps=189 q=-0.0 size=N/A time=00:22:24.09 bitrate=N/A speed=7.87x    frame=32318 fps=189 q=-0.0 size=N/A time=00:22:27.92 bitrate=N/A speed=7.87x    frame=32403 fps=189 q=-0.0 size=N/A time=00:22:31.47 bitrate=N/A speed=7.87x    frame=32492 fps=189 q=-0.0 size=N/A time=00:22:35.18 bitrate=N/A speed=7.87x    frame=32596 fps=189 q=-0.0 size=N/A time=00:22:39.52 bitrate=N/A speed=7.87x    frame=32691 fps=189 q=-0.0 size=N/A time=00:22:43.48 bitrate=N/A speed=7.87x    frame=32788 fps=189 q=-0.0 size=N/A time=00:22:47.53 bitrate=N/A speed=7.87x    frame=32881 fps=189 q=-0.0 size=N/A time=00:22:51.41 bitrate=N/A speed=7.87x    frame=32976 fps=189 q=-0.0 size=N/A time=00:22:55.37 bitrate=N/A speed=7.87x    frame=33076 fps=189 q=-0.0 size=N/A time=00:22:59.54 bitrate=N/A speed=7.87x    frame=33160 fps=189 q=-0.0 size=N/A time=00:23:03.04 bitrate=N/A speed=7.86x    frame=33265 fps=189 q=-0.0 size=N/A time=00:23:07.42 bitrate=N/A speed=7.87x    frame=33356 fps=189 q=-0.0 size=N/A time=00:23:11.22 bitrate=N/A speed=7.86x    frame=33452 fps=189 q=-0.0 size=N/A time=00:23:15.22 bitrate=N/A speed=7.86x    frame=33548 fps=189 q=-0.0 size=N/A time=00:23:19.23 bitrate=N/A speed=7.86x    frame=33646 fps=189 q=-0.0 size=N/A time=00:23:23.31 bitrate=N/A speed=7.86x    frame=33738 fps=188 q=-0.0 size=N/A time=00:23:27.15 bitrate=N/A speed=7.86x    frame=33833 fps=188 q=-0.0 size=N/A time=00:23:31.11 bitrate=N/A speed=7.86x    frame=33929 fps=188 q=-0.0 size=N/A time=00:23:35.12 bitrate=N/A speed=7.86x    frame=34025 fps=188 q=-0.0 size=N/A time=00:23:39.12 bitrate=N/A speed=7.86x    frame=34118 fps=188 q=-0.0 size=N/A time=00:23:43.00 bitrate=N/A speed=7.86x    frame=34204 fps=188 q=-0.0 size=N/A time=00:23:46.59 bitrate=N/A speed=7.86x    frame=34303 fps=188 q=-0.0 size=N/A time=00:23:50.72 bitrate=N/A speed=7.86x    frame=34399 fps=188 q=-0.0 size=N/A time=00:23:54.72 bitrate=N/A speed=7.86x    [Parsed_psnr_10 @ 00000224d57cfec0] PSNR y:45.419006 u:50.963061 v:50.698809 average:46.596143 min:39.977857 max:inf
[out#0/null @ 00000224cfef41c0] video:14806KiB audio:269472KiB subtitle:0KiB other streams:0KiB global headers:0KiB muxing overhead: unknown
frame=34457 fps=188 q=-0.0 Lsize=N/A time=00:23:57.14 bitrate=N/A speed=7.86x    
